<svg height="511pt" viewBox="-21 0 511 512" width="511pt" xmlns="http://www.w3.org/2000/svg"><path d="M35.21 225.621h399.196V512H35.211zm0 0" fill="#ea9d2d"/><path d="M182.738 225.621h104.14V512h-104.14zm0 0" fill="#c7463b"/><path d="M139.352 329.762a8.68 8.68 0 01-8.68-8.68v-86.781a8.68 8.68 0 018.68-8.68c4.789 0 8.675 3.887 8.675 8.68v86.781c0 4.793-3.886 8.68-8.675 8.68zm0 0" fill="#b9b9b9"/><path d="M200.098 373.152c0 33.547-27.2 60.746-60.746 60.746-33.551 0-60.75-27.199-60.75-60.746 0-33.55 27.199-60.75 60.75-60.75 33.546 0 60.746 27.2 60.746 60.75zm0 0" fill="#fbd699"/><path d="M157.695 391.504l-18.343 10.45-18.348-10.415a24.831 24.831 0 01-11.977-26.98c1.828-7.942 9.743-12.899 17.684-11.07a14.719 14.719 0 017.066 3.886l5.563 5.543 5.562-5.543c5.797-5.73 15.137-5.676 20.864.117a14.719 14.719 0 013.886 7.067 24.824 24.824 0 01-11.957 26.945zm0 0" fill="#ea6b65"/><path d="M235.121 59.758l-45.863-41.942c-20.414-18.336-49.7-22.96-74.77-11.808a67.843 67.843 0 00-36.996 42.14 67.06 67.06 0 007.645 55.313l2.394 3.766a68.046 68.046 0 0057.79 31.613h72.132c14.3.058 25.95-11.473 26.035-25.774v-34.37a25.739 25.739 0 00-8.367-18.938zm-26.348 44.71H145.32a33.467 33.467 0 01-28.402-15.527l-2.395-3.773a32.915 32.915 0 01-3.75-27.195 33.275 33.275 0 0118.165-20.715 34.233 34.233 0 0136.757 5.785l43.078 39.39zm0 0" fill="#b94137"/><path d="M230.852 78.695v34.371c.085 14.301 11.734 25.832 26.035 25.778h72.133a68.06 68.06 0 0057.793-31.617l2.386-3.766a67.016 67.016 0 007.649-55.313 67.799 67.799 0 00-36.989-42.14C334.785-5.145 305.496-.52 285.082 17.816l-45.863 41.942a25.766 25.766 0 00-8.367 18.937zm34.71 3.758l43.079-39.41a34.24 34.24 0 0136.761-5.785 33.298 33.298 0 0118.172 20.715 32.973 32.973 0 01-3.75 27.195l-2.394 3.773a33.485 33.485 0 01-28.41 15.528h-63.458zm0 0" fill="#b94137"/><path d="M.5 130.164h468.617V242.98H.5zm0 0" fill="#f3af3e"/><path d="M174.063 130.164h121.492V242.98H174.062zm0 0" fill="#dc4d41"/><g fill="#ea9d2d"><path d="M356.3 199.59h17.356v17.355h-17.355zm0 0M391.016 199.59h17.355v17.355h-17.355zm0 0M425.727 199.59h17.355v17.355h-17.355zm0 0"/></g></svg>